<svg id="Layer_1" data-name="Layer 1" xmlns="http://www.w3.org/2000/svg" xmlns:xlink="http://www.w3.org/1999/xlink" viewBox="0 0 500 500"><defs><style>.cls-1{fill:url(#linear-gradient);}</style><linearGradient id="linear-gradient" x1="250" y1="480.89" x2="250" y2="19.11" gradientUnits="userSpaceOnUse"><stop offset="0" stop-color="#29b9df"/><stop offset="0.39" stop-color="#29b6de"/><stop offset="0.7" stop-color="#29acdb"/><stop offset="0.98" stop-color="#299bd6"/><stop offset="1" stop-color="#299ad6"/></linearGradient></defs><path class="cls-1" d="M251.58,270C319,243.9,330.13,296.66,382,277.71c50.42-18.32,51.4-94.47,1.65-114.12-38.12-14.9-55.58,15-94.8-23-18-17.49-24.35-41.88-22.9-66.63.27-4.51-1-12.18-1.44-14.19-14.29-61-105-50.32-105.19,12.15-.94,31.79,29.94,57.76,61.15,52.73,40.19-4.12,84.08,36.71,82.39,71.1-2.52,51-83.77,88.31-131.4,56.24-28.7-16.61-68.48-5.08-83.85,24.31-28.89,48.45,25,110.63,76.93,87.89,45.27-23.19,107.17,9.16,119.72,57.19,2.71,15.51,8.21,32.42,20.55,42.9,43.35,43.09,119.89-4.64,101.18-62.39-9.32-35.77-52.38-54.22-85.52-38.37h0C256.74,388.78,144.24,307.6,251.58,270Z"/></svg>