<svg id="Layer_1" data-name="Layer 1" xmlns="http://www.w3.org/2000/svg" viewBox="0 0 1000 1000"><defs><style>.cls-1{fill:#fff;}</style></defs><path class="cls-1" d="M606.1,404.19c-22.86,0-40.58,6.17-52.68,18.34-13.47,13.57-20.21,34.85-20,63.24.74,56.4,24,82.86,73.1,83.27,49.17,0,73.08-27.23,73.08-83.25C679.58,430.88,655.55,404.19,606.1,404.19Zm.39,133.56C580.91,537.32,568,520,568,486.2c0-32.55,13-49.06,38.53-49.06h1c25.51,0,37.91,16.05,37.91,49.07C645.4,519.44,631.58,537.75,606.49,537.75Z"/><path class="cls-1" d="M364.65,407.67a16.53,16.53,0,0,0-7.8-2c-7,0-13.55,4.82-17.05,12.59L304.38,497l-45.32-80.48c-3.83-6.8-10-10.85-16.46-10.85a16.35,16.35,0,0,0-9.17,2.9c-8.94,5.92-11.22,18.33-5.29,28.86L285.34,539l-29.49,64.87c-5,11.08-1.65,23.19,7.75,28.17a16.52,16.52,0,0,0,7.8,2c7,0,13.54-4.83,17-12.59l20.89-46,.19.09,62.87-139.76C377.38,424.77,374.05,412.66,364.65,407.67Z"/><path class="cls-1" d="M107.82,485.36c32.08-12.42,37.39,12.7,62.11,3.68,24-8.72,24.47-45,.78-54.33-18.14-7.09-26.46,7.14-45.13-10.95C117,415.43,114,403.82,114.68,392a31.61,31.61,0,0,0-.69-6.75c-6.8-29.07-50-24-50.08,5.78-.44,15.14,14.26,27.5,29.12,25.11,19.13-2,40,17.47,39.22,33.85-1.2,24.29-39.88,42-62.56,26.77-13.66-7.91-32.6-2.42-39.92,11.57C16,511.43,41.68,541,66.4,530.2c21.55-11,51,4.37,57,27.23,1.29,7.38,3.9,15.44,9.78,20.43,20.63,20.51,57.08-2.22,48.17-29.71-4.44-17-24.94-25.81-40.72-18.27h0C110.28,541.92,56.72,503.27,107.82,485.36Z"/><path class="cls-1" d="M449.07,404.19c-22.87,0-40.59,6.17-52.68,18.34-13.48,13.57-20.22,34.85-20,63.24.74,56.4,24,82.86,73.1,83.27,49.17,0,73.07-27.23,73.07-83.25C522.53,430.88,498.51,404.19,449.07,404.19Zm.38,133.56c-25.58-.43-38.54-17.77-38.54-51.55,0-32.55,13-49.06,38.54-49.06h1c25.51,0,37.91,16.05,37.91,49.07C488.36,519.44,474.54,537.75,449.45,537.75Z"/><path class="cls-1" d="M819.27,423.21H812a4,4,0,0,1-3.24-1.16c-12.09-11.93-28.77-18.27-48.19-18.27-48.67,0-72.33,27.09-72.33,82.84,0,55.18,23.66,82,72.33,82,14.77,0,32-4.9,34.37-6.58a26.12,26.12,0,0,1,3.55-1.58l-.16,9.81c0,8.9-2.59,16-7.85,21.7-5.07,5.94-13.73,8.62-28,8.62h-1.13c-25.2,0-31-13-33.5-18.58-.22-.5-.42-.95-.61-1.33-2.44-6-6.7-8.63-13.91-8.63h-7.61c-4.65,0-8,1.18-10.11,3.52-2.3,2.59-3.11,6.73-2.46,12.31a60.64,60.64,0,0,0,19.45,32.18c10.16,9.06,26.48,13.47,49.88,13.47,19.6,0,35.85-4.86,49.67-14.86,13.93-11.34,20.75-28.6,20.75-52.68V438.24C832.94,427.7,828.85,423.21,819.27,423.21ZM761.41,537.33c-25.61,0-38.57-17.06-38.57-50.71s12.61-49.89,38.54-49.89c17.75,0,38.91,8.65,38.91,49.89C800.29,519.84,787.21,536.91,761.41,537.33Z"/><path class="cls-1" d="M910.46,403.68c-1.19,0-2.3-.05-3.39-.05-29.59,0-47,10.73-56.48,34.79-1.64,5.39-1.67,9.51,0,11.74,1.27,1.71,3.75,2.58,7.36,2.58H879.6c2.7-12.43,13.32-18.73,31.57-18.73,21.43,0,30.49,6.43,31.25,22.17,0,3.11-2.19,3.43-16.44,5.43-10.54,1.48-26.46,3.71-47.5,8-26,6.24-37.52,23-35.16,51.25,2.11,29.95,22.93,45.51,61.89,46.29,23.2,0,34.7-6.88,44.84-17.21l.43-.46c10.41-11.05,18.38-16.19,23.58-18.58v-66c.34-20.6-4.29-35.47-14.13-45.48C949.55,408.81,933.37,403.68,910.46,403.68Zm32,99.85c0,18.78-10.72,29-32.79,31.21h-.25c-15,0-28.64-1.06-32.53-13l-.07-.3c-1.1-6-.28-10.92,2.46-14.7,3-4.08,8-6.64,15-7.59,18.3-3,41.08-6.68,44.26-8l3.88-2.14Z"/></svg>